<?xml version="1.0" encoding="UTF-8" standalone="no"?>
<!-- Created with Inkscape (http://www.inkscape.org/) -->

<svg
   xmlns:dc="http://purl.org/dc/elements/1.1/"
   xmlns:cc="http://creativecommons.org/ns#"
   xmlns:rdf="http://www.w3.org/1999/02/22-rdf-syntax-ns#"
   xmlns:svg="http://www.w3.org/2000/svg"
   xmlns="http://www.w3.org/2000/svg"
   xmlns:xlink="http://www.w3.org/1999/xlink"
   xmlns:sodipodi="http://sodipodi.sourceforge.net/DTD/sodipodi-0.dtd"
   xmlns:inkscape="http://www.inkscape.org/namespaces/inkscape"
   id="svg2"
   version="1.1"
   inkscape:version="0.48.4 r9939"
   width="350.17597"
   height="310.23134"
   xml:space="preserve"
   sodipodi:docname="Bilpolar-coordinates.pdf"><metadata
     id="metadata8"><rdf:RDF><cc:Work
         rdf:about=""><dc:format>image/svg+xml</dc:format><dc:type
           rdf:resource="http://purl.org/dc/dcmitype/StillImage" /><dc:title></dc:title></cc:Work></rdf:RDF></metadata><defs
     id="defs6"><marker
       inkscape:stockid="Arrow2Lend"
       orient="auto"
       refY="0.0"
       refX="0.0"
       id="Arrow2Lend"
       style="overflow:visible;"><path
         id="path4816"
         style="fill-rule:evenodd;stroke-width:0.62500000;stroke-linejoin:round;"
         d="M 8.7185878,4.0337352 L -2.2072895,0.016013256 L 8.7185884,-4.0017078 C 6.9730900,-1.6296469 6.9831476,1.6157441 8.7185878,4.0337352 z "
         transform="scale(1.1) rotate(180) translate(1,0)" /></marker><marker
       inkscape:stockid="Arrow1Lstart"
       orient="auto"
       refY="0.0"
       refX="0.0"
       id="Arrow1Lstart"
       style="overflow:visible"><path
         id="path4795"
         d="M 0.0,0.0 L 5.0,-5.0 L -12.5,0.0 L 5.0,5.0 L 0.0,0.0 z "
         style="fill-rule:evenodd;stroke:#000000;stroke-width:1.0pt"
         transform="scale(0.8) translate(12.5,0)" /></marker><pattern
       inkscape:collect="always"
       xlink:href="#pattern78"
       id="pattern3107"
       patternTransform="translate(105.16317,-102.8232)" /><clipPath
       clipPathUnits="userSpaceOnUse"
       id="clipPath54"><path
         d="m 0,0 280.14078,0 0,248.18507 L 0,248.18507 0,0 z"
         id="path56" /></clipPath><mask
       maskUnits="userSpaceOnUse"
       x="0"
       y="0"
       width="1"
       height="1"
       id="mask58"><g
         id="g60"><g
           clip-path="url(#clipPath54)"
           id="g62"><path
             d="m 0,0 280.14078,0 0,248.18507 L 0,248.18507 0,0 z"
             style="fill:#000000;fill-opacity:0.72;fill-rule:nonzero;stroke:none"
             id="path64" /></g></g></mask><clipPath
       clipPathUnits="userSpaceOnUse"
       id="clipPath70"><path
         d="m 0,0 280.14078,0 0,248.18507 L 0,248.18507 0,0 z"
         id="path72" /></clipPath><clipPath
       clipPathUnits="userSpaceOnUse"
       id="clipPath74"><path
         d="M 0,0 281,0 281,249 0,249 0,0 z"
         id="path76" /></clipPath><pattern
       patternTransform="translate(0,-0.814926)"
       patternUnits="userSpaceOnUse"
       x="0"
       y="0"
       width="281"
       height="249"
       id="pattern78"><g
         id="g80" /><g
         id="g82"><g
           clip-path="url(#clipPath74)"
           id="g84"><g
             id="g86"><g
               transform="matrix(1,0,0,-1,0,249)"
               id="g88"><path
                 d="m 8.852,198.984 c 0.105,-4.066 0.191,-21.371 0.191,-38.461 l 0,-31.066 1.215,0.133 c 13.379,1.461 25.476,5.801 36.527,13.105 6.524,4.313 13.137,10.16 18.086,15.993 l 1.938,2.285 -1.164,0.14 -1.165,0.145 3.008,2.418 c 1.657,1.332 3.18,2.617 3.391,2.859 0.336,0.383 -3.387,2.809 -30.031,19.578 -16.731,10.532 -30.817,19.395 -31.301,19.703 l -0.883,0.559 0.188,-7.391 z"
                 style="fill:#333333;fill-opacity:1;fill-rule:nonzero;stroke:#333333;stroke-opacity:1;stroke-width:0.285714;stroke-linecap:butt;stroke-linejoin:miter;stroke-miterlimit:4;stroke-dasharray:none"
                 id="path90" /></g></g></g></g></pattern><marker
       inkscape:stockid="Arrow1Lstart"
       orient="auto"
       refY="0"
       refX="0"
       id="Arrow1Lstart-8"
       style="overflow:visible"><path
         inkscape:connector-curvature="0"
         id="path4795-5"
         d="M 0,0 5,-5 -12.5,0 5,5 0,0 z"
         style="fill-rule:evenodd;stroke:#000000;stroke-width:1pt"
         transform="matrix(0.8,0,0,0.8,10,0)" /></marker></defs><sodipodi:namedview
     pagecolor="#ffffff"
     bordercolor="#666666"
     borderopacity="1"
     objecttolerance="10"
     gridtolerance="10"
     guidetolerance="10"
     inkscape:pageopacity="0"
     inkscape:pageshadow="2"
     inkscape:window-width="1669"
     inkscape:window-height="963"
     id="namedview4"
     showgrid="false"
     inkscape:zoom="1.5214452"
     inkscape:cx="58.751224"
     inkscape:cy="155.11568"
     inkscape:window-x="0"
     inkscape:window-y="27"
     inkscape:window-maximized="1"
     inkscape:current-layer="g10" /><g
     id="g10"
     inkscape:groupmode="layer"
     inkscape:label="Mobility-angles"
     transform="matrix(1.25,0,0,-1.25,0,310.23134)"><g
       transform="matrix(1,0,0,-1,0,248.18507)"
       id="g14"><path
         inkscape:connector-curvature="0"
         id="path16"
         style="fill:none;stroke:#000000;stroke-width:0.83039999;stroke-linecap:square;stroke-linejoin:bevel;stroke-miterlimit:4;stroke-opacity:1;stroke-dasharray:none"
         d="m 279.672,247.738 c -0.414,0.043 -0.887,0.047 -1.324,0.016" /></g><path
       d="m 214.465,38.02107 c -207.227,0.605 -206.25,0.605 -206.25,0.605"
       style="fill:none;stroke:#000000;stroke-width:1.68159997;stroke-linecap:butt;stroke-linejoin:miter;stroke-miterlimit:4;stroke-opacity:1;stroke-dasharray:none"
       id="path20"
       inkscape:connector-curvature="0" /><path
       d="m 197.64857,38.071543 -6.74662,-6.70637 23.56262,6.656301 -23.52337,6.796699 6.70737,-6.74663 z"
       style="fill:#000000;fill-opacity:1;fill-rule:evenodd;stroke:#000000;stroke-width:1.68160009;stroke-linecap:butt;stroke-linejoin:miter;stroke-miterlimit:4;stroke-opacity:1;stroke-dasharray:none"
       id="path24"
       inkscape:connector-curvature="0" /><path
       d="M 8.484,245.11507 C 7.879,37.89207 7.879,38.86907 7.879,38.86907"
       style="fill:none;stroke:#000000;stroke-width:1.6;stroke-linecap:butt;stroke-linejoin:miter;stroke-miterlimit:4;stroke-opacity:1;stroke-dasharray:none"
       id="path28"
       inkscape:connector-curvature="0" /><path
       d="m 8.4370423,228.29828 6.7073847,-6.74163 -6.6603153,23.55764 -6.7926873,-23.51938 6.7456179,6.70337 z"
       style="fill:#000000;fill-opacity:1;fill-rule:evenodd;stroke:#000000;stroke-width:1.68160009;stroke-linecap:butt;stroke-linejoin:miter;stroke-miterlimit:4;stroke-opacity:1;stroke-dasharray:none"
       id="path32"
       inkscape:connector-curvature="0" /><path
       d="M 183.81647,179.21641 C 9.2091393,40.434659 10.029715,41.091797 10.029715,41.091797"
       style="fill:none;stroke:#b3b3b3;stroke-width:1.60000000000000009;stroke-linecap:butt;stroke-linejoin:miter;stroke-miterlimit:4;stroke-opacity:1;stroke-dasharray:none;marker-start:none;marker-end:url(#Arrow1Lstart)"
       id="path44"
       inkscape:connector-curvature="0" /><g
       id="g50"><g
         id="g52" /><g
         mask="url(#mask58)"
         id="g66"><g
           id="g68" /></g></g><path
       d="M 182.56781,180.53858 C 8.9418143,247.35503 9.7609929,247.04232 9.7609929,247.04232"
       style="fill:#666666;stroke:#666666;stroke-width:1.60000000000000009;stroke-linecap:butt;stroke-linejoin:miter;stroke-miterlimit:4;stroke-opacity:1;stroke-dasharray:none;marker-start:none;marker-end:url(#Arrow1Lstart)"
       id="path44-5"
       inkscape:connector-curvature="0" /></g></svg>