<?xml version="1.0" encoding="UTF-8" standalone="no"?>
<!-- Created with Inkscape (http://www.inkscape.org/) -->

<svg
   xmlns:dc="http://purl.org/dc/elements/1.1/"
   xmlns:cc="http://creativecommons.org/ns#"
   xmlns:rdf="http://www.w3.org/1999/02/22-rdf-syntax-ns#"
   xmlns:svg="http://www.w3.org/2000/svg"
   xmlns="http://www.w3.org/2000/svg"
   xmlns:sodipodi="http://sodipodi.sourceforge.net/DTD/sodipodi-0.dtd"
   xmlns:inkscape="http://www.inkscape.org/namespaces/inkscape"
   id="svg2"
   version="1.1"
   inkscape:version="0.48.4 r9939"
   width="350.17597"
   height="310.23134"
   xml:space="preserve"
   sodipodi:docname="Mobility-angles.pdf"><metadata
     id="metadata8"><rdf:RDF><cc:Work
         rdf:about=""><dc:format>image/svg+xml</dc:format><dc:type
           rdf:resource="http://purl.org/dc/dcmitype/StillImage" /><dc:title></dc:title></cc:Work></rdf:RDF></metadata><defs
     id="defs6"><clipPath
       clipPathUnits="userSpaceOnUse"
       id="clipPath54"><path
         d="m 0,0 280.14078,0 0,248.18507 L 0,248.18507 0,0 z"
         id="path56" /></clipPath><mask
       maskUnits="userSpaceOnUse"
       x="0"
       y="0"
       width="1"
       height="1"
       id="mask58"><g
         id="g60"><g
           clip-path="url(#clipPath54)"
           id="g62"><path
             d="m 0,0 280.14078,0 0,248.18507 L 0,248.18507 0,0 z"
             style="fill:#000000;fill-opacity:0.72;fill-rule:nonzero;stroke:none"
             id="path64" /></g></g></mask><clipPath
       clipPathUnits="userSpaceOnUse"
       id="clipPath70"><path
         d="m 0,0 280.14078,0 0,248.18507 L 0,248.18507 0,0 z"
         id="path72" /></clipPath><clipPath
       clipPathUnits="userSpaceOnUse"
       id="clipPath74"><path
         d="M 0,0 281,0 281,249 0,249 0,0 z"
         id="path76" /></clipPath><pattern
       patternTransform="translate(0,-0.814926)"
       patternUnits="userSpaceOnUse"
       x="0"
       y="0"
       width="281"
       height="249"
       id="pattern78"><g
         id="g80" /><g
         id="g82"><g
           clip-path="url(#clipPath74)"
           id="g84"><g
             id="g86"><g
               transform="matrix(1,0,0,-1,0,249)"
               id="g88"><path
                 d="m 8.852,198.984 c 0.105,-4.066 0.191,-21.371 0.191,-38.461 l 0,-31.066 1.215,0.133 c 13.379,1.461 25.476,5.801 36.527,13.105 6.524,4.313 13.137,10.16 18.086,15.993 l 1.938,2.285 -1.164,0.14 -1.165,0.145 3.008,2.418 c 1.657,1.332 3.18,2.617 3.391,2.859 0.336,0.383 -3.387,2.809 -30.031,19.578 -16.731,10.532 -30.817,19.395 -31.301,19.703 l -0.883,0.559 0.188,-7.391 z"
                 style="fill:#333333;fill-opacity:1;fill-rule:nonzero;stroke:#333333;stroke-opacity:1;stroke-width:0.285714;stroke-linecap:butt;stroke-linejoin:miter;stroke-miterlimit:4;stroke-dasharray:none"
                 id="path90" /></g></g></g></g></pattern></defs><sodipodi:namedview
     pagecolor="#ffffff"
     bordercolor="#666666"
     borderopacity="1"
     objecttolerance="10"
     gridtolerance="10"
     guidetolerance="10"
     inkscape:pageopacity="0"
     inkscape:pageshadow="2"
     inkscape:window-width="1669"
     inkscape:window-height="963"
     id="namedview4"
     showgrid="false"
     inkscape:zoom="1.5214452"
     inkscape:cx="177.71706"
     inkscape:cy="155.11568"
     inkscape:window-x="0"
     inkscape:window-y="27"
     inkscape:window-maximized="1"
     inkscape:current-layer="g10" /><g
     id="g10"
     inkscape:groupmode="layer"
     inkscape:label="Mobility-angles"
     transform="matrix(1.25,0,0,-1.25,0,310.23134)"><g
       id="g12"><g
         id="g14"
         transform="matrix(1,0,0,-1,0,248.18507)"><path
           d="m 279.672,247.738 c -0.414,0.043 -0.887,0.047 -1.324,0.016"
           style="fill:none;stroke:#000000;stroke-opacity:1;stroke-width:0.8304;stroke-linecap:square;stroke-linejoin:bevel;stroke-miterlimit:4;stroke-dasharray:none"
           id="path16" /></g><g
         id="g18"
         transform="matrix(1,0,0,-1,0,248.18507)"><path
           d="M 214.465,210.164 C 7.238,209.559 8.215,209.559 8.215,209.559"
           style="fill:none;stroke:#000000;stroke-opacity:1;stroke-width:1.6816;stroke-linecap:butt;stroke-linejoin:miter;stroke-miterlimit:4;stroke-dasharray:none"
           id="path20" /></g><g
         id="g22"
         transform="matrix(-1,0.00291802,0.00291802,1,0,248.18507)"><path
           d="m -198.26,-209.535 6.727,-6.726 -23.543,6.725 23.543,6.728 -6.727,-6.727 z"
           style="fill:#000000;fill-opacity:1;fill-rule:evenodd;stroke:#000000;stroke-opacity:1;stroke-width:1.681593;stroke-linecap:butt;stroke-linejoin:miter;stroke-miterlimit:4;stroke-dasharray:none"
           id="path24" /></g><g
         id="g26"
         transform="matrix(1,0,0,-1,0,248.18507)"><path
           d="M 8.484,3.07 C 7.879,210.293 7.879,209.316 7.879,209.316"
           style="fill:none;stroke:#000000;stroke-opacity:1;stroke-width:1.6816;stroke-linecap:butt;stroke-linejoin:miter;stroke-miterlimit:4;stroke-dasharray:none"
           id="path28" /></g><g
         id="g30"
         transform="matrix(-0.00291802,-1,-1,0.00291802,0,248.18507)"><path
           d="m 19.862,-8.495 6.722,-6.727 -23.538,6.729 23.539,6.724 -6.723,-6.726 z"
           style="fill:#000000;fill-opacity:1;fill-rule:evenodd;stroke:#000000;stroke-opacity:1;stroke-width:1.681593;stroke-linecap:butt;stroke-linejoin:miter;stroke-miterlimit:4;stroke-dasharray:none"
           id="path32" /></g><g
         id="g34"
         transform="matrix(-0.720381,0.10692,0.0770232,1,0,248.18507)"><path
           d="m -25.2,-125.997 c -34.159,1.953 -67.55,-8.184 -90.047,-27.341"
           style="fill:none;stroke:#000000;stroke-opacity:1;stroke-width:1.405827;stroke-linecap:square;stroke-linejoin:bevel;stroke-miterlimit:4;stroke-dasharray:none"
           id="path36" /></g><g
         id="g38"
         transform="matrix(-0.683174,1,0.720381,0.94835,0,248.18507)"><path
           d="m -132.47,-30.669 2.051,-2.052 -7.179,2.052 7.178,2.052 -2.05,-2.052 z"
           style="fill:#000000;fill-opacity:1;fill-rule:evenodd;stroke:#000000;stroke-opacity:1;stroke-width:0.512939;stroke-linecap:butt;stroke-linejoin:miter;stroke-miterlimit:4;stroke-dasharray:none"
           id="path40" /></g><g
         id="g42"
         transform="matrix(1,0,0,-1,0,248.18507)"><path
           d="M 181.242,98.863 C 5.906,209.316 6.73,208.793 6.73,208.793"
           style="fill:none;stroke:#000000;stroke-opacity:1;stroke-width:1.6816;stroke-linecap:butt;stroke-linejoin:miter;stroke-miterlimit:4;stroke-dasharray:none"
           id="path44" /></g><g
         id="g46"
         transform="matrix(-1,-0.629967,-0.629967,1,0,248.18507)"><path
           d="m -70.935,-152.511 5.691,-5.692 -19.92,5.689 19.921,5.694 -5.692,-5.691 z"
           style="fill:#000000;fill-opacity:1;fill-rule:evenodd;stroke:#000000;stroke-opacity:1;stroke-width:1.422809;stroke-linecap:butt;stroke-linejoin:miter;stroke-miterlimit:4;stroke-dasharray:none"
           id="path48" /></g><g
         id="g50"><g
           id="g52" /><g
           id="g66"
           mask="url(#mask58)"><g
             id="g68" /><g
             id="g92"><g
               clip-path="url(#clipPath70)"
               id="g94"><g
                 id="g96"><path
                   d="m 0,0 280.14078,0 0,248.18507 L 0,248.18507 0,0 z"
                   style="fill:url(#pattern78);fill-opacity:1;fill-rule:nonzero;stroke:none"
                   id="path98" /></g></g></g></g></g></g><path
       style="fill:#808080;fill-opacity:1;stroke:#b3b3b3;stroke-width:1.31453967;stroke-miterlimit:4;stroke-opacity:1;stroke-dasharray:none;stroke-dashoffset:0"
       d="m 11.253435,222.73159 c 0.240499,-19.08819 0.437271,-40.57605 0.437271,-47.75082 l 0,-13.04502 2.793396,0.37865 c 24.942535,3.38099 46.832073,14.80953 63.925741,33.37568 4.495344,4.88258 4.811524,5.40041 3.491476,5.71824 -1.288597,0.31026 -0.994646,0.7084 2.619233,3.54762 2.238898,1.75898 4.057603,3.37634 4.041572,3.59414 -0.02816,0.38266 -75.659202,48.11555 -77.055643,48.63199 -0.48022,0.17761 -0.557234,-10.30735 -0.253046,-34.45048 z"
       id="path3075"
       inkscape:connector-curvature="0"
       transform="matrix(0.8,0,0,-0.8,0,248.18507)" /></g></svg>